<svg xmlns="http://www.w3.org/2000/svg" width="305.231" height="116.056" viewBox="0 0 305.231 116.056"><defs><clipPath id="qznujbq37a"><path data-name="Path 1926" d="M0 0h305.231v-116.056H0z" style="fill:none"></path></clipPath></defs><g data-name="Group 302"><g data-name="Group 301" style="clip-path:url(#qznujbq37a)" transform="translate(0 116.056)"><path data-name="Path 1917" d="M184.144-39.23a32.325 32.325 0 0 1-11.233 9.675 30.93 30.93 0 0 1-14.583 3.54 31.284 31.284 0 0 1-16.094-4.342 32.355 32.355 0 0 1-11.752-11.752 31.268 31.268 0 0 1-4.343-16.091 31.022 31.022 0 0 1 4.342-16.047 32.117 32.117 0 0 1 11.752-11.657 31.537 31.537 0 0 1 16.094-4.3 31.129 31.129 0 0 1 14.961 3.728 32.285 32.285 0 0 1 11.375 10.1 30.974 30.974 0 0 1 5.38 14.206h-14.252a19.347 19.347 0 0 0-6.091-11.373 16.437 16.437 0 0 0-11.374-4.389 16.618 16.618 0 0 0-8.968 2.6 18.748 18.748 0 0 0-6.607 7.127A20.659 20.659 0 0 0 140.3-58.2a20.848 20.848 0 0 0 2.454 10.1 19.108 19.108 0 0 0 6.607 7.174 16.391 16.391 0 0 0 8.968 2.643 16.515 16.515 0 0 0 10.95-4.059 19.035 19.035 0 0 0 6.321-10.576h14.253a31.425 31.425 0 0 1-5.711 13.687" style="fill:#fff"></path><path data-name="Path 1918" d="M216.891-48.1a19.108 19.108 0 0 0 6.607 7.174 16.391 16.391 0 0 0 8.968 2.643 16.391 16.391 0 0 0 8.967-2.643 19.129 19.129 0 0 0 6.608-7.174 20.862 20.862 0 0 0 2.459-10.1 20.671 20.671 0 0 0-2.454-10.005 18.768 18.768 0 0 0-6.608-7.127 16.612 16.612 0 0 0-8.967-2.6 16.613 16.613 0 0 0-8.968 2.6 18.748 18.748 0 0 0-6.607 7.127 20.658 20.658 0 0 0-2.459 10.005 20.849 20.849 0 0 0 2.454 10.1m-.519 17.746A32.347 32.347 0 0 1 204.62-42.11a31.264 31.264 0 0 1-4.342-16.09 31.019 31.019 0 0 1 4.342-16.047 32.119 32.119 0 0 1 11.752-11.658 31.543 31.543 0 0 1 16.095-4.3 31.55 31.55 0 0 1 16.094 4.3 32.137 32.137 0 0 1 11.752 11.658 31.036 31.036 0 0 1 4.342 16.047 31.281 31.281 0 0 1-4.342 16.094 32.365 32.365 0 0 1-11.752 11.752 31.287 31.287 0 0 1-16.094 4.342 31.28 31.28 0 0 1-16.095-4.342" style="fill:#fff"></path><path data-name="Path 1919" d="M280.924-76.641a24.042 24.042 0 0 1 9.77-9.487 30.234 30.234 0 0 1 14.537-3.4v12.271a13.518 13.518 0 0 0-10.195 4.012q-3.871 4.013-3.87 10.619v35.87h-13.688v-35.87a27.955 27.955 0 0 1 3.446-14.017" style="fill:#fff"></path><path data-name="Path 1920" d="M110.934-34.217 94.5-53.384l11.7-.1" style="fill:#fff"></path><path data-name="Path 1921" d="m7.111-85.741 14.913 19.552-11.288-.066" style="fill:#fff"></path><path data-name="Path 1922" d="M57.623-116.054a57.827 57.827 0 0 0-21.793 4.426 57.805 57.805 0 0 0-18.541 12.277q-1.5 1.475-2.875 3.044l7.627 9.9a45.515 45.515 0 0 1 3.81-4.254 45.664 45.664 0 0 1 14.648-9.7 45.663 45.663 0 0 1 17.214-3.5h.339a45.528 45.528 0 0 1 17.51 3.5A45.527 45.527 0 0 1 90.659-90.2a45.669 45.669 0 0 1 9.7 14.648 45.665 45.665 0 0 1 3.5 17.213 45.332 45.332 0 0 1-1.996 13.639l9.089 10.431q.347-.773.672-1.558a57.641 57.641 0 0 0 4.43-22.61 57.8 57.8 0 0 0-4.426-21.793 57.814 57.814 0 0 0-12.277-18.536 57.654 57.654 0 0 0-19.118-12.858 57.708 57.708 0 0 0-22.61-4.43" style="fill:#fff"></path><path data-name="Path 1923" d="M96.145-32.592A45.328 45.328 0 0 1 90.2-25.4a45.664 45.664 0 0 1-14.647 9.7 45.669 45.669 0 0 1-17.214 3.5 45.478 45.478 0 0 1-17.85-3.5A45.529 45.529 0 0 1 25.4-25.852 45.67 45.67 0 0 1 15.7-40.5a45.669 45.669 0 0 1-3.5-17.214 45.483 45.483 0 0 1 3.229-17.178L7.063-85.756a58.975 58.975 0 0 0-2.632 5.523A57.662 57.662 0 0 0 0-57.623a57.814 57.814 0 0 0 4.428 21.792A57.806 57.806 0 0 0 16.705-17.29 57.643 57.643 0 0 0 35.823-4.431 57.654 57.654 0 0 0 58 0h.431a57.811 57.811 0 0 0 21.794-4.428A57.814 57.814 0 0 0 98.766-16.7a57.666 57.666 0 0 0 5.625-6.425z" style="fill:#fff"></path><path data-name="Path 1924" d="M89.25-53.349a33.623 33.623 0 0 0 .217-4.1 30.85 30.85 0 0 0-4.5-16.925 31.813 31.813 0 0 0-11.816-11.287 31.311 31.311 0 0 0-15-4.027 31.176 31.176 0 0 0-15.941 4.132 31.746 31.746 0 0 0-11.7 11.441 30.669 30.669 0 0 0-4.407 15.833 30.908 30.908 0 0 0 4.178 15.941 31.976 31.976 0 0 0 11.535 11.7A30.924 30.924 0 0 0 57.7-26.232a30.68 30.68 0 0 0 13.319-2.844 31.9 31.9 0 0 0 10.743-8.089 31.217 31.217 0 0 0 4.633-7.019l-15.37-.092a17.634 17.634 0 0 1-13.094 5.936c-10.1 0-18.28-8.792-18.28-19.638s8.185-19.639 18.28-19.639 18.28 8.792 18.28 19.639a21.077 21.077 0 0 1-.49 4.532z" style="fill:#fff"></path><path data-name="Path 1925" d="M52.336-53.483h29.39v-11.36h-29.39z" style="fill:#fff"></path></g></g></svg>