<?xml version="1.0" encoding="utf-8"?>
<!-- Generator: Adobe Illustrator 22.1.0, SVG Export Plug-In . SVG Version: 6.00 Build 0)  -->
<svg version="1.1" id="Layer_1" xmlns="http://www.w3.org/2000/svg" xmlns:xlink="http://www.w3.org/1999/xlink" x="0px" y="0px"
	 width="200px" height="38.2px" viewBox="0 0 200 38.2" style="enable-background:new 0 0 200 38.2;" xml:space="preserve">
<style type="text/css">
	.st0{fill:#FFFFFF;}
	.st1{fill:#FFFFFF;stroke:#FFFFFF;stroke-width:0.7398;stroke-linecap:round;stroke-linejoin:round;stroke-miterlimit:10;}
	.st2{enable-background:new    ;}
	.st3{fill:#FFFFFF;stroke:#FFFFFF;stroke-width:0.3659;stroke-miterlimit:10;}
</style>
<g>
	<polygon class="st0" points="3.4,0.6 0.4,6.3 9.1,6.3 9.1,24.7 15.3,24.7 15.3,6.3 21.7,6.3 24.8,0.6 	"/>
	<path class="st0" d="M37,10.2h-7.1V6.3h10.6c0,0,1.3-3.5,4.5-5.7H26.8l-3,5.7v18.4h21c-3.2-2.4-4.3-5.7-4.3-5.7H29.9v-3.9H37
		C37,15.1,36.8,12.5,37,10.2"/>
	<path class="st0" d="M56.4,19.2c-0.8,0.7-2,1-3.4,1c-1.7,0-3-0.6-4-1.9c-1-1.3-1.4-3.1-1.4-5.5s0.5-4.2,1.5-5.6c1-1.4,2.4-2,4.1-2
		c1.3,0,2.4,0.3,3.1,0.9s1.3,1.4,1.6,2.6h5.8c-0.3-2.6-1.3-4.8-3.1-6.3c-1.8-1.5-4.2-2.3-7.2-2.3c-3.7,0-6.6,1.2-8.8,3.5
		c-2.2,2.3-3.3,5.4-3.3,9.3c0,3.8,1.1,6.8,3.3,9.1c2.2,2.3,5,3.5,8.5,3.5c2.9,0,5.3-0.8,7.2-2.4c1.8-1.6,3-3.9,3.4-6.7h-5.7
		C57.7,17.6,57.2,18.5,56.4,19.2"/>
	<path class="st1" d="M84,22.5c-1.7,1.4-4,2.2-6.8,2.2c-3.3,0-5.8-1.1-7.7-3.2c-1.8-2.1-2.7-5.1-2.7-8.9c0-3.9,1-6.8,2.8-8.9
		c1.8-2.2,4.4-3.2,7.8-3.2c2.6,0,4.7,0.7,6.4,2c1.7,1.3,2.7,3.1,2.9,5.2h-1.2c-0.3-2-1.3-3.6-2.7-4.6c-1.5-1.1-3.4-1.6-5.7-1.6
		c-2.8,0-5.1,1-6.7,3c-1.7,2-2.5,4.7-2.5,8.2s0.8,6.2,2.5,8.1c1.6,2,3.8,3,6.5,3c2.6,0,4.6-0.6,6.2-2c1.5-1.3,2.4-3,2.6-5.2v0h1.2
		C86.7,19,85.8,21,84,22.5"/>
	<path class="st1" d="M103.8,15.3l-5.3-13l-5.4,13H103.8z M97.8,1h1.3l9.5,23.1h-1.2l-3.2-7.9H92.6l-3.3,7.9h-1.2L97.8,1z"/>
	<polygon class="st1" points="112,1 113.2,1 128.9,22.3 128.9,1 130,1 130,24.2 128.9,24.2 113.1,2.9 113.1,24.2 112,24.2 	"/>
	<path class="st1" d="M149.1,15.3l-5.3-13l-5.4,13H149.1z M143.1,1h1.3l9.5,23.1h-1.2l-3.2-7.9h-11.6l-3.3,7.9h-1.2L143.1,1z"/>
	<path class="st1" d="M163.2,23.2c1.9,0,3.4-0.1,4.5-0.3c1.2-0.1,2.1-0.4,2.9-0.9c1.5-0.7,2.6-1.9,3.4-3.5c0.8-1.6,1.2-3.6,1.2-5.9
		c0-2-0.3-3.7-0.8-5.1c-0.6-1.4-1.4-2.6-2.5-3.5c-0.9-0.7-1.9-1.3-3.2-1.5c-1.3-0.3-3.1-0.4-5.6-0.4h-4.8v21.2L163.2,23.2
		L163.2,23.2z M157.2,1h5.7c2.1,0,3.8,0.1,5,0.2s2.2,0.4,3.1,0.9c1.8,0.8,3.2,2.1,4.1,3.9c0.9,1.8,1.4,3.9,1.4,6.5
		c0,2.6-0.4,4.8-1.4,6.6c-1,1.8-2.3,3-4.1,3.9c-0.9,0.4-2,0.7-3.2,0.9c-1.3,0.1-2.8,0.2-4.8,0.2h-5.7L157.2,1L157.2,1z"/>
	<path class="st1" d="M192.4,15.3l-5.3-13l-5.4,13H192.4z M186.4,1h1.3l9.5,23.1h-1.2l-3.2-7.9h-11.6l-3.3,7.9h-1.2L186.4,1z"/>
</g>
<g class="st2">
	<path class="st3" d="M64.1,29.4v-0.5h6.9v0.5h-3.2V38h-0.6v-8.5H64.1z"/>
	<path class="st3" d="M72.1,28.9v3.9h0c0.1-0.2,0.2-0.5,0.4-0.7s0.3-0.4,0.5-0.5c0.2-0.1,0.4-0.2,0.7-0.3s0.5-0.1,0.7-0.1
		c0.4,0,0.7,0,1,0.1s0.5,0.2,0.7,0.4s0.3,0.3,0.4,0.5c0.1,0.2,0.2,0.4,0.2,0.6s0.1,0.4,0.1,0.6c0,0.2,0,0.3,0,0.5v4h-0.5v-4.1
		c0-0.2,0-0.4,0-0.6s-0.1-0.5-0.2-0.7c-0.1-0.2-0.3-0.4-0.6-0.6s-0.6-0.2-1-0.2c-0.4,0-0.7,0.1-1,0.2c-0.3,0.1-0.5,0.3-0.7,0.6
		c-0.2,0.2-0.4,0.5-0.5,0.9c-0.1,0.3-0.2,0.7-0.2,1.1V38h-0.5v-9H72.1z"/>
	<path class="st3" d="M78.3,34.8L78.3,34.8c0,0.5,0.1,0.8,0.2,1.2c0.1,0.3,0.3,0.6,0.4,0.9c0.2,0.3,0.4,0.5,0.7,0.6
		c0.3,0.2,0.6,0.2,1,0.2c0.6,0,1.2-0.2,1.5-0.5c0.4-0.3,0.6-0.8,0.8-1.4h0.5c-0.1,0.8-0.5,1.3-0.9,1.7c-0.5,0.4-1.1,0.6-1.9,0.6
		c-0.5,0-0.9-0.1-1.3-0.3s-0.7-0.4-0.9-0.7s-0.4-0.7-0.5-1.1c-0.1-0.4-0.2-0.8-0.2-1.3c0-0.5,0.1-0.9,0.2-1.3
		c0.1-0.4,0.3-0.8,0.5-1.1c0.2-0.3,0.5-0.6,0.9-0.8s0.8-0.3,1.3-0.3c0.5,0,0.9,0.1,1.2,0.3c0.3,0.2,0.6,0.4,0.9,0.7
		c0.2,0.3,0.4,0.6,0.5,1c0.1,0.4,0.2,0.8,0.2,1.2c0,0,0,0.1,0,0.1s0,0.1,0,0.1H78.3z M83.1,34.4c0-0.4-0.1-0.7-0.2-1
		c-0.1-0.3-0.3-0.6-0.4-0.8c-0.2-0.2-0.4-0.4-0.7-0.6c-0.3-0.1-0.6-0.2-1-0.2c-0.4,0-0.7,0.1-1,0.2s-0.5,0.3-0.7,0.6
		c-0.2,0.2-0.4,0.5-0.5,0.8c-0.1,0.3-0.2,0.6-0.2,1H83.1z"/>
	<path class="st3" d="M88.3,28.9h6.1v0.5h-5.5V33H94v0.5h-5.2v4h5.6V38h-6.1V28.9z"/>
	<path class="st3" d="M97,34.5l-2.4-3.1h0.7l2,2.7l2-2.7h0.6l-2.3,3.1l2.6,3.4h-0.7l-2.2-3l-2.3,3h-0.6L97,34.5z"/>
	<path class="st3" d="M100.9,34.8L100.9,34.8c0,0.5,0.1,0.8,0.2,1.2c0.1,0.3,0.3,0.6,0.4,0.9s0.4,0.5,0.7,0.6c0.3,0.2,0.6,0.2,1,0.2
		c0.7,0,1.2-0.2,1.5-0.5c0.4-0.3,0.6-0.8,0.8-1.4h0.5c-0.1,0.8-0.5,1.3-0.9,1.7c-0.5,0.4-1.1,0.6-1.9,0.6c-0.5,0-0.9-0.1-1.3-0.3
		c-0.4-0.2-0.7-0.4-0.9-0.7c-0.2-0.3-0.4-0.7-0.5-1.1c-0.1-0.4-0.2-0.8-0.2-1.3c0-0.5,0.1-0.9,0.2-1.3c0.1-0.4,0.3-0.8,0.5-1.1
		c0.2-0.3,0.5-0.6,0.9-0.8c0.4-0.2,0.8-0.3,1.3-0.3c0.5,0,0.9,0.1,1.2,0.3c0.3,0.2,0.6,0.4,0.9,0.7c0.2,0.3,0.4,0.6,0.5,1
		c0.1,0.4,0.2,0.8,0.2,1.2c0,0,0,0.1,0,0.1c0,0.1,0,0.1,0,0.1H100.9z M105.7,34.4c0-0.4-0.1-0.7-0.2-1s-0.3-0.6-0.4-0.8
		c-0.2-0.2-0.4-0.4-0.7-0.6c-0.3-0.1-0.6-0.2-1-0.2c-0.4,0-0.7,0.1-1,0.2c-0.3,0.1-0.5,0.3-0.7,0.6c-0.2,0.2-0.4,0.5-0.5,0.8
		c-0.1,0.3-0.2,0.6-0.2,1H105.7z"/>
	<path class="st3" d="M112.2,33.5c0-0.3-0.1-0.5-0.2-0.8s-0.3-0.4-0.5-0.5c-0.2-0.1-0.4-0.3-0.7-0.3c-0.3-0.1-0.5-0.1-0.8-0.1
		c-0.4,0-0.8,0.1-1.1,0.2c-0.3,0.2-0.6,0.4-0.8,0.7c-0.2,0.3-0.4,0.6-0.5,0.9s-0.2,0.7-0.2,1.1c0,0.4,0.1,0.8,0.2,1.2
		c0.1,0.4,0.3,0.7,0.5,1c0.2,0.3,0.5,0.5,0.8,0.6c0.3,0.2,0.7,0.2,1.1,0.2c0.3,0,0.6,0,0.8-0.2c0.3-0.1,0.5-0.2,0.7-0.4
		c0.2-0.2,0.4-0.4,0.5-0.6c0.1-0.2,0.2-0.5,0.3-0.8h0.5c-0.1,0.4-0.2,0.7-0.3,1c-0.2,0.3-0.4,0.6-0.6,0.8s-0.5,0.4-0.8,0.5
		c-0.3,0.1-0.6,0.2-1,0.2c-0.5,0-1-0.1-1.4-0.3c-0.4-0.2-0.7-0.4-0.9-0.8c-0.2-0.3-0.4-0.7-0.5-1.1c-0.1-0.4-0.2-0.9-0.2-1.3
		c0-0.5,0.1-0.9,0.2-1.3c0.1-0.4,0.3-0.8,0.6-1.1c0.3-0.3,0.6-0.5,0.9-0.7c0.4-0.2,0.8-0.3,1.3-0.3c0.4,0,0.7,0,1,0.1
		c0.3,0.1,0.6,0.2,0.8,0.4c0.2,0.2,0.4,0.4,0.6,0.7s0.2,0.6,0.3,1H112.2z"/>
	<path class="st3" d="M119,38h-0.5v-1.4h0c-0.1,0.2-0.2,0.5-0.4,0.7c-0.2,0.2-0.3,0.4-0.5,0.5c-0.2,0.1-0.4,0.2-0.7,0.3
		s-0.5,0.1-0.7,0.1c-0.4,0-0.7,0-1-0.1c-0.3-0.1-0.5-0.2-0.7-0.4c-0.2-0.2-0.3-0.3-0.4-0.5s-0.2-0.4-0.2-0.6c0-0.2-0.1-0.4-0.1-0.6
		c0-0.2,0-0.3,0-0.5v-4h0.5v4.1c0,0.2,0,0.4,0,0.6c0,0.2,0.1,0.5,0.2,0.7c0.1,0.2,0.3,0.4,0.5,0.6s0.6,0.2,1,0.2
		c0.4,0,0.7-0.1,1-0.2s0.5-0.3,0.7-0.6s0.4-0.5,0.5-0.9c0.1-0.3,0.2-0.7,0.2-1.1v-3.5h0.5V38z"/>
	<path class="st3" d="M122.8,31.9h-1.4v4.5c0,0.3,0,0.5,0.1,0.6c0.1,0.2,0.1,0.3,0.3,0.3c0.1,0.1,0.3,0.1,0.4,0.1c0.2,0,0.4,0,0.6,0
		V38c-0.2,0-0.5,0-0.7,0c-0.2,0-0.4-0.1-0.6-0.2c-0.2-0.1-0.3-0.3-0.4-0.5c-0.1-0.2-0.1-0.5-0.1-0.9v-4.5h-1.2v-0.4h1.2v-2h0.5v2
		h1.4V31.9z"/>
	<path class="st3" d="M123.8,30.2v-1.3h0.5v1.3H123.8z M123.8,38v-6.5h0.5V38H123.8z"/>
	<path class="st3" d="M128.3,38h-0.6l-2.6-6.5h0.6l2.3,5.9h0l2.2-5.9h0.5L128.3,38z"/>
	<path class="st3" d="M131.6,34.8L131.6,34.8c0,0.5,0.1,0.8,0.2,1.2c0.1,0.3,0.3,0.6,0.4,0.9s0.4,0.5,0.7,0.6c0.3,0.2,0.6,0.2,1,0.2
		c0.7,0,1.2-0.2,1.5-0.5c0.4-0.3,0.6-0.8,0.8-1.4h0.5c-0.1,0.8-0.5,1.3-0.9,1.7c-0.5,0.4-1.1,0.6-1.9,0.6c-0.5,0-0.9-0.1-1.3-0.3
		c-0.4-0.2-0.7-0.4-0.9-0.7c-0.2-0.3-0.4-0.7-0.5-1.1c-0.1-0.4-0.2-0.8-0.2-1.3c0-0.5,0.1-0.9,0.2-1.3c0.1-0.4,0.3-0.8,0.5-1.1
		c0.2-0.3,0.5-0.6,0.9-0.8c0.4-0.2,0.8-0.3,1.3-0.3c0.5,0,0.9,0.1,1.2,0.3c0.3,0.2,0.6,0.4,0.9,0.7c0.2,0.3,0.4,0.6,0.5,1
		c0.1,0.4,0.2,0.8,0.2,1.2c0,0,0,0.1,0,0.1c0,0.1,0,0.1,0,0.1H131.6z M136.3,34.4c0-0.4-0.1-0.7-0.2-1s-0.3-0.6-0.4-0.8
		c-0.2-0.2-0.4-0.4-0.7-0.6c-0.3-0.1-0.6-0.2-1-0.2c-0.4,0-0.7,0.1-1,0.2c-0.3,0.1-0.5,0.3-0.7,0.6c-0.2,0.2-0.4,0.5-0.5,0.8
		c-0.1,0.3-0.2,0.6-0.2,1H136.3z"/>
	<path class="st3" d="M141.2,33.4c0-0.7,0.1-1.3,0.3-1.8c0.2-0.6,0.5-1.1,0.8-1.5c0.4-0.4,0.8-0.8,1.4-1c0.5-0.2,1.1-0.4,1.8-0.4
		c0.5,0,1,0.1,1.4,0.2c0.4,0.1,0.7,0.3,1,0.5c0.3,0.2,0.5,0.4,0.7,0.7c0.2,0.2,0.3,0.5,0.4,0.7c0.1,0.2,0.1,0.4,0.2,0.6
		c0,0.2,0.1,0.2,0.1,0.3h-0.6c-0.1-0.4-0.2-0.7-0.4-1s-0.4-0.6-0.7-0.8c-0.3-0.2-0.6-0.4-0.9-0.5s-0.7-0.2-1.1-0.2
		c-0.6,0-1.1,0.1-1.6,0.3s-0.9,0.5-1.2,0.9c-0.3,0.4-0.6,0.8-0.7,1.3c-0.2,0.5-0.3,1.1-0.3,1.6s0.1,1.1,0.3,1.6
		c0.2,0.5,0.4,1,0.7,1.3c0.3,0.4,0.7,0.7,1.2,0.9s1,0.3,1.6,0.3c0.4,0,0.8-0.1,1.2-0.3c0.4-0.2,0.7-0.4,1-0.7c0.3-0.3,0.5-0.6,0.7-1
		c0.2-0.4,0.3-0.8,0.3-1.2h0.6c0,0.5-0.2,1-0.4,1.5c-0.2,0.5-0.5,0.8-0.8,1.2c-0.3,0.3-0.7,0.6-1.2,0.8c-0.4,0.2-0.9,0.3-1.4,0.3
		c-0.7,0-1.3-0.1-1.8-0.4c-0.5-0.2-1-0.6-1.4-1c-0.4-0.4-0.6-0.9-0.8-1.5C141.3,34.7,141.2,34.1,141.2,33.4z"/>
	<path class="st3" d="M150.1,34.7c0-0.5,0.1-0.9,0.2-1.3c0.1-0.4,0.3-0.8,0.6-1.1c0.3-0.3,0.6-0.6,0.9-0.7c0.4-0.2,0.8-0.3,1.3-0.3
		c0.5,0,0.9,0.1,1.3,0.3c0.4,0.2,0.7,0.4,0.9,0.7s0.4,0.7,0.6,1.1c0.1,0.4,0.2,0.8,0.2,1.3c0,0.5-0.1,0.9-0.2,1.3
		c-0.1,0.4-0.3,0.8-0.6,1.1s-0.6,0.6-0.9,0.7s-0.8,0.3-1.3,0.3c-0.5,0-0.9-0.1-1.3-0.3c-0.4-0.2-0.7-0.4-0.9-0.7
		c-0.3-0.3-0.4-0.7-0.6-1.1C150.1,35.6,150.1,35.2,150.1,34.7z M150.5,34.7c0,0.4,0.1,0.8,0.2,1.1s0.3,0.7,0.5,1
		c0.2,0.3,0.5,0.5,0.8,0.7c0.3,0.2,0.7,0.2,1.1,0.2s0.8-0.1,1.1-0.2s0.6-0.4,0.8-0.7c0.2-0.3,0.4-0.6,0.5-1s0.2-0.7,0.2-1.1
		c0-0.4-0.1-0.8-0.2-1.1s-0.3-0.7-0.5-1c-0.2-0.3-0.5-0.5-0.8-0.7c-0.3-0.2-0.7-0.2-1.1-0.2s-0.8,0.1-1.1,0.2
		c-0.3,0.2-0.6,0.4-0.8,0.7c-0.2,0.3-0.4,0.6-0.5,1S150.5,34.3,150.5,34.7z"/>
	<path class="st3" d="M157.1,31.5h0.5v1.3h0c0.1-0.2,0.1-0.4,0.3-0.6c0.1-0.2,0.3-0.3,0.5-0.5s0.4-0.2,0.6-0.3
		c0.2-0.1,0.5-0.1,0.7-0.1c0.3,0,0.6,0,0.8,0.1c0.2,0.1,0.4,0.2,0.6,0.3c0.2,0.1,0.3,0.3,0.4,0.4s0.2,0.3,0.2,0.5h0
		c0.2-0.5,0.5-0.8,0.8-1s0.8-0.3,1.3-0.3c0.3,0,0.6,0,0.8,0.1c0.2,0.1,0.5,0.2,0.6,0.4c0.2,0.2,0.3,0.4,0.4,0.7
		c0.1,0.3,0.2,0.6,0.2,1V38h-0.5v-4.4c0-0.4-0.1-0.7-0.2-1c-0.1-0.2-0.3-0.4-0.4-0.5c-0.2-0.1-0.3-0.2-0.5-0.2c-0.2,0-0.3,0-0.4,0
		c-0.3,0-0.6,0.1-0.8,0.2c-0.2,0.1-0.5,0.3-0.6,0.5c-0.2,0.2-0.3,0.5-0.4,0.8s-0.2,0.6-0.2,1V38h-0.5v-4.4c0-0.4-0.1-0.7-0.2-1
		c-0.1-0.2-0.3-0.4-0.4-0.5s-0.3-0.2-0.5-0.2c-0.2,0-0.3-0.1-0.4-0.1c-0.2,0-0.5,0-0.7,0.1s-0.5,0.2-0.7,0.4
		c-0.2,0.2-0.4,0.4-0.5,0.7c-0.1,0.3-0.2,0.7-0.2,1.1V38h-0.5V31.5z"/>
	<path class="st3" d="M167.2,31.5h0.5v1.3h0c0.1-0.2,0.1-0.4,0.3-0.6c0.1-0.2,0.3-0.3,0.5-0.5s0.4-0.2,0.6-0.3
		c0.2-0.1,0.5-0.1,0.7-0.1c0.3,0,0.6,0,0.8,0.1c0.2,0.1,0.4,0.2,0.6,0.3c0.2,0.1,0.3,0.3,0.4,0.4s0.2,0.3,0.2,0.5h0
		c0.2-0.5,0.5-0.8,0.8-1s0.8-0.3,1.3-0.3c0.3,0,0.6,0,0.8,0.1c0.2,0.1,0.5,0.2,0.6,0.4c0.2,0.2,0.3,0.4,0.4,0.7
		c0.1,0.3,0.2,0.6,0.2,1V38h-0.5v-4.4c0-0.4-0.1-0.7-0.2-1c-0.1-0.2-0.3-0.4-0.4-0.5c-0.2-0.1-0.3-0.2-0.5-0.2c-0.2,0-0.3,0-0.4,0
		c-0.3,0-0.6,0.1-0.8,0.2c-0.2,0.1-0.5,0.3-0.6,0.5c-0.2,0.2-0.3,0.5-0.4,0.8s-0.2,0.6-0.2,1V38h-0.5v-4.4c0-0.4-0.1-0.7-0.2-1
		c-0.1-0.2-0.3-0.4-0.4-0.5s-0.3-0.2-0.5-0.2c-0.2,0-0.3-0.1-0.4-0.1c-0.2,0-0.5,0-0.7,0.1s-0.5,0.2-0.7,0.4
		c-0.2,0.2-0.4,0.4-0.5,0.7c-0.1,0.3-0.2,0.7-0.2,1.1V38h-0.5V31.5z"/>
	<path class="st3" d="M177.4,30.2v-1.3h0.5v1.3H177.4z M177.4,38v-6.5h0.5V38H177.4z"/>
	<path class="st3" d="M181.8,31.9h-1.4v4.5c0,0.3,0,0.5,0.1,0.6c0.1,0.2,0.1,0.3,0.3,0.3c0.1,0.1,0.3,0.1,0.4,0.1c0.2,0,0.4,0,0.6,0
		V38c-0.2,0-0.5,0-0.7,0c-0.2,0-0.4-0.1-0.6-0.2c-0.2-0.1-0.3-0.3-0.4-0.5c-0.1-0.2-0.1-0.5-0.1-0.9v-4.5h-1.2v-0.4h1.2v-2h0.5v2
		h1.4V31.9z"/>
	<path class="st3" d="M185,31.9h-1.4v4.5c0,0.3,0,0.5,0.1,0.6c0.1,0.2,0.1,0.3,0.3,0.3c0.1,0.1,0.3,0.1,0.4,0.1c0.2,0,0.4,0,0.6,0
		V38c-0.2,0-0.5,0-0.7,0c-0.2,0-0.4-0.1-0.6-0.2c-0.2-0.1-0.3-0.3-0.4-0.5c-0.1-0.2-0.1-0.5-0.1-0.9v-4.5h-1.2v-0.4h1.2v-2h0.5v2
		h1.4V31.9z"/>
	<path class="st3" d="M185.9,34.8L185.9,34.8c0,0.5,0.1,0.8,0.2,1.2c0.1,0.3,0.3,0.6,0.4,0.9s0.4,0.5,0.7,0.6c0.3,0.2,0.6,0.2,1,0.2
		c0.7,0,1.2-0.2,1.5-0.5c0.4-0.3,0.6-0.8,0.8-1.4h0.5c-0.1,0.8-0.5,1.3-0.9,1.7c-0.5,0.4-1.1,0.6-1.9,0.6c-0.5,0-0.9-0.1-1.3-0.3
		c-0.4-0.2-0.7-0.4-0.9-0.7c-0.2-0.3-0.4-0.7-0.5-1.1c-0.1-0.4-0.2-0.8-0.2-1.3c0-0.5,0.1-0.9,0.2-1.3c0.1-0.4,0.3-0.8,0.5-1.1
		c0.2-0.3,0.5-0.6,0.9-0.8c0.4-0.2,0.8-0.3,1.3-0.3c0.5,0,0.9,0.1,1.2,0.3c0.3,0.2,0.6,0.4,0.9,0.7c0.2,0.3,0.4,0.6,0.5,1
		c0.1,0.4,0.2,0.8,0.2,1.2c0,0,0,0.1,0,0.1c0,0.1,0,0.1,0,0.1H185.9z M190.7,34.4c0-0.4-0.1-0.7-0.2-1s-0.3-0.6-0.4-0.8
		c-0.2-0.2-0.4-0.4-0.7-0.6c-0.3-0.1-0.6-0.2-1-0.2c-0.4,0-0.7,0.1-1,0.2c-0.3,0.1-0.5,0.3-0.7,0.6c-0.2,0.2-0.4,0.5-0.5,0.8
		c-0.1,0.3-0.2,0.6-0.2,1H190.7z"/>
	<path class="st3" d="M192.5,34.8L192.5,34.8c0,0.5,0.1,0.8,0.2,1.2c0.1,0.3,0.3,0.6,0.4,0.9s0.4,0.5,0.7,0.6c0.3,0.2,0.6,0.2,1,0.2
		c0.7,0,1.2-0.2,1.5-0.5c0.4-0.3,0.6-0.8,0.8-1.4h0.5c-0.1,0.8-0.5,1.3-0.9,1.7c-0.5,0.4-1.1,0.6-1.9,0.6c-0.5,0-0.9-0.1-1.3-0.3
		c-0.4-0.2-0.7-0.4-0.9-0.7c-0.2-0.3-0.4-0.7-0.5-1.1c-0.1-0.4-0.2-0.8-0.2-1.3c0-0.5,0.1-0.9,0.2-1.3c0.1-0.4,0.3-0.8,0.5-1.1
		c0.2-0.3,0.5-0.6,0.9-0.8c0.4-0.2,0.8-0.3,1.3-0.3c0.5,0,0.9,0.1,1.2,0.3c0.3,0.2,0.6,0.4,0.9,0.7c0.2,0.3,0.4,0.6,0.5,1
		c0.1,0.4,0.2,0.8,0.2,1.2c0,0,0,0.1,0,0.1c0,0.1,0,0.1,0,0.1H192.5z M197.2,34.4c0-0.4-0.1-0.7-0.2-1s-0.3-0.6-0.4-0.8
		c-0.2-0.2-0.4-0.4-0.7-0.6c-0.3-0.1-0.6-0.2-1-0.2c-0.4,0-0.7,0.1-1,0.2c-0.3,0.1-0.5,0.3-0.7,0.6c-0.2,0.2-0.4,0.5-0.5,0.8
		c-0.1,0.3-0.2,0.6-0.2,1H197.2z"/>
</g>
</svg>
