<?xml version="1.0" encoding="UTF-8"?>
<svg id="Layer_1" xmlns="http://www.w3.org/2000/svg" version="1.1" viewBox="0 0 140.7 76.5">
  <!-- Generator: Adobe Illustrator 29.5.1, SVG Export Plug-In . SVG Version: 2.1.0 Build 141)  -->
  <defs>
    <style>
      .st0 {
        fill: #0b2e2b;
      }

      .st1 {
        fill: #c4b75b;
      }

      .st2 {
        fill: #f7f5f2;
      }
    </style>
  </defs>
  <path class="st0" d="M102.6,3.1H38.2C18.8,3.1,3.1,18.9,3.1,38.3s15.7,35.1,35,35.1h64.4c19.3,0,35-15.7,35-35.1S121.9,3.1,102.6,3.1Z"/>
  <path class="st0" d="M73.2,30h0l8.2,8.2-8.2-8.2Z"/>
  <path class="st1" d="M129.4,38.3c0,7.2-2.7,13.9-7.8,19-5.2,5.2-12.1,7.8-18.9,7.8s-13.7-2.6-18.9-7.8l-10.6-10.7h0l-8.2-8.2-10.6-10.7c-2.9-2.9-6.6-4.4-10.6-4.4v-11.7c7.1,0,13.8,2.7,18.9,7.8l18.9,19,10.6,10.5c5.9,5.9,15.4,5.9,21.3,0,2.8-2.8,4.4-6.6,4.4-10.6s-1.6-7.8-4.4-10.7c-5.7-5.7-15.6-5.7-21.3,0l-2.4,2.4h-16.4l10.6-10.7c10.4-10.5,27.3-10.5,37.7,0,5.1,5.1,7.8,11.8,7.8,19h0Z"/>
  <path class="st2" d="M38.1,65.1c-7.1,0-13.8-2.8-18.9-7.8s-7.8-11.8-7.8-19,2.8-13.9,7.8-19c5-5.1,11.7-7.8,18.9-7.8v11.7c-4,0-7.8,1.6-10.6,4.4-5.9,5.9-5.9,15.5,0,21.3,2.8,2.8,6.6,4.4,10.6,4.4v11.7h0Z"/>
  <path class="st2" d="M73.1,46.5l-10.6,10.7c-5,5.1-11.7,7.8-18.9,7.8v-11.7c4,0,7.8-1.6,10.6-4.4l2.4-2.3h16.5Z"/>
</svg> 
